<?xml version="1.0" encoding="UTF-8"?>
<svg width="193px" height="36px" viewBox="0 0 193 36" version="1.1" xmlns="http://www.w3.org/2000/svg" xmlns:xlink="http://www.w3.org/1999/xlink">
    <!-- Generator: Sketch 62 (91390) - https://sketch.com -->
    <title>Shape</title>
    <desc>Created with Sketch.</desc>
    <g id="Homepage" stroke="none" stroke-width="1" fill="none" fill-rule="evenodd">
        <path d="M97.9596128,15.9767219 C97.3933782,13.2552434 95.4292766,12.1964527 93.3903593,12.1964527 C90.7844202,12.1964527 89.0471277,13.5950341 88.4430916,15.9767219 L97.9596128,15.9767219 Z M93.5793669,23.7264709 C95.3158721,23.7264709 96.8271436,22.8947328 97.4689812,21.8367305 L102.265043,21.7988883 C101.093985,25.6169997 97.7706052,27.7716349 93.5415654,27.7716349 C87.3854383,27.7716349 83.4210082,23.4245224 83.4210082,17.7923549 C83.4210082,12.1586106 87.4610413,7.81149812 93.4281608,7.81149812 C98.9794646,7.81149812 102.831277,12.2342948 102.831277,17.7923549 C102.831277,18.5097782 102.793476,19.1523058 102.64227,19.7948332 L88.4808931,19.7948332 C89.1227307,22.479258 91.1624353,23.7264709 93.5793669,23.7264709 Z M64.0034858,8.34010514 L64.0034858,27.2430279 L59.131821,27.2430279 L59.131821,25.2760265 C58.0749547,26.9024488 56.3376621,27.7712406 53.9963333,27.7712406 C50.4839464,27.7712406 47.8409933,25.0497622 47.8409933,20.3999128 L47.8409933,8.34010514 L52.7118707,8.34010514 L52.7118707,20.0593338 C52.7118707,22.2147574 53.9963333,23.235706 55.6958245,23.235706 C57.6213371,23.235706 59.131821,22.1390732 59.131821,19.2654379 L59.131821,8.34010514 L64.0034858,8.34010514 Z M81.7734918,21.7609674 C81.7734918,25.7682893 78.298906,27.7715561 74.1454692,27.7715561 C69.9912443,27.7715561 66.5166592,25.6539746 66.5166592,21.2311779 L71.2749194,21.2311779 C71.2749194,22.7054434 72.3703752,23.4622857 74.1454692,23.4622857 C75.9205632,23.4622857 76.9018262,22.8576003 76.9018262,21.7609674 C76.9018262,18.5096994 66.7434684,21.0805978 66.7434684,13.8227963 C66.7434684,9.85331649 70.2180534,7.81141931 74.1454692,7.81141931 C77.921679,7.81141931 81.3962639,9.92821241 81.3962639,14.3517974 L76.6380038,14.3517974 C76.6380038,12.8767435 75.5425489,12.1199013 74.1454692,12.1199013 C72.5971834,12.1199013 71.6151331,12.7253751 71.6151331,13.8227963 C71.6151331,17.1111181 81.7734918,14.4645354 81.7734918,21.7609674 Z M115.314982,7.96286654 L115.314982,13.4066119 C112.784646,13.103875 110.140905,14.23835 110.140905,17.9043045 L110.140905,27.2426337 L105.270028,27.2426337 L105.270028,8.34049928 L110.140905,8.34049928 L110.140905,11.1755041 C111.085155,8.94518474 113.011455,7.96286654 115.314982,7.96286654 Z M132.156878,21.7609674 C132.156878,25.7682893 128.682292,27.7715561 124.528855,27.7715561 C120.37463,27.7715561 116.900045,25.6539746 116.900045,21.2311779 L121.658305,21.2311779 C121.658305,22.7054434 122.753761,23.4622857 124.528855,23.4622857 C126.303949,23.4622857 127.285212,22.8576003 127.285212,21.7609674 C127.285212,18.5096994 117.126854,21.0805978 117.126854,13.8227963 C117.126854,9.85331649 120.601439,7.81141931 124.528855,7.81141931 C128.305065,7.81141931 131.77965,9.92821241 131.77965,14.3517974 L127.02139,14.3517974 C127.02139,12.8767435 125.925935,12.1199013 124.528855,12.1199013 C122.980569,12.1199013 121.998519,12.7253751 121.998519,13.8227963 C121.998519,17.1111181 132.156878,14.4645354 132.156878,21.7609674 Z M150.707327,15.1452203 L150.707327,27.2428702 L145.835661,27.2428702 L145.835661,15.5228531 C145.835661,13.3682179 144.551986,12.3480577 142.852495,12.3480577 C140.926982,12.3480577 139.453513,13.4446906 139.453513,16.278907 L139.453513,27.2428702 L134.582636,27.2428702 L134.582636,8.33994743 L139.453513,8.33994743 L139.453513,10.2683183 C140.511166,8.68052645 142.248459,7.81094627 144.589787,7.81094627 C148.101387,7.81094627 150.707327,10.5332131 150.707327,15.1452203 Z M164.551804,21.7987307 C164.551804,20.3623073 163.230327,19.454885 161.077219,19.454885 C158.924897,19.454885 157.942846,20.4372031 157.942846,21.7987307 C157.942846,23.1594699 158.924897,24.1425764 161.077219,24.1425764 C163.230327,24.1425764 164.551804,23.1594699 164.551804,21.7987307 Z M169.310065,15.2205104 L169.310065,27.242476 L164.551804,27.242476 L164.551804,25.616842 C163.456349,26.9397391 161.794658,27.7714772 159.416316,27.7714772 C156.055135,27.7714772 153.071969,25.7682105 153.071969,21.7987307 C153.071969,17.8292509 156.055135,15.8638263 159.416316,15.8638263 C161.794658,15.8638263 163.456349,16.582038 164.551804,17.526514 L164.551804,15.5232473 C164.551804,13.2929279 163.418547,12.3484519 161.606439,12.3484519 C159.831345,12.3484519 158.698088,13.2929279 158.698088,14.7671935 L153.939828,14.7671935 C153.939828,10.3065546 157.452215,7.81134041 161.606439,7.81134041 C165.797677,7.81134041 169.310065,10.3065546 169.310065,15.2205104 Z M187.545972,17.7921184 C187.545972,14.6157461 185.318048,12.461111 182.29708,12.461111 C179.426531,12.461111 177.236408,14.4643777 177.085202,17.450751 L177.085202,18.131909 C177.236408,21.1190706 179.426531,23.1223374 182.29708,23.1223374 C185.318048,23.1223374 187.545972,20.9669138 187.545972,17.7921184 Z M192.417638,17.7921184 C192.417638,23.4250742 188.263413,27.7713984 183.203529,27.7713984 C180.446383,27.7713984 178.445268,26.7504498 177.085202,25.0499199 L177.085202,34.8029356 L172.214325,34.8029356 L172.214325,8.34026276 L177.085202,8.34026276 L177.085202,10.5335284 C178.445268,8.83221019 180.446383,7.8112616 183.203529,7.8112616 C188.263413,7.8112616 192.417638,12.1583741 192.417638,17.7921184 Z M27.3662302,14.2906928 C27.573948,14.7831211 27.7427924,15.2910513 27.8713746,15.8098863 C27.9202868,16.0090599 27.9632187,16.2097303 28.0000634,16.4115768 C29.0041578,21.9162745 25.3604982,27.1934675 19.8616883,28.1985299 C15.0302458,29.0902676 10.180648,26.2967049 8.52317698,21.6664255 C8.3099056,21.0692252 8.15195454,20.4536363 8.05113916,19.8275704 C8.01322693,19.5753696 8.08061491,19.3186782 8.23749795,19.1177937 C8.55286594,18.7141011 9.13543721,18.6426852 9.53880511,18.9583907 C10.3887929,19.6219824 11.3392755,20.1453076 12.3542631,20.5086953 C17.6159861,22.3920248 23.406562,19.6489237 25.2879839,14.3815662 C25.6318663,13.4204438 26.9710857,13.3498834 27.3662302,14.2906928 Z M17.9813665,36 C8.05053195,36 0,27.9411255 0,18 C0,8.05887447 8.05053195,0 17.9813665,0 C27.912201,0 35.9627329,8.05887447 35.9627329,18 C35.9627329,27.9411255 27.912201,36 17.9813665,36 Z M17.9813665,32.2257494 C25.8298977,32.2257494 32.1923894,25.8566644 32.1923894,18 C32.1923894,10.1433356 25.8298977,3.77425061 17.9813665,3.77425061 C10.1328352,3.77425061 3.77034352,10.1433356 3.77034352,18 C3.77034352,25.8566644 10.1328352,32.2257494 17.9813665,32.2257494 Z" id="Shape" fill="#3A21CE" fill-rule="nonzero"></path>
    </g>
</svg>